<svg xmlns="http://www.w3.org/2000/svg" xmlns:xlink="http://www.w3.org/1999/xlink" width="500" zoomAndPan="magnify" viewBox="0 0 375 374.999991" height="500" preserveAspectRatio="xMidYMid meet" version="1.0"><defs><g/><clipPath id="d1fe229397"><rect x="0" width="345" y="0" height="351"/></clipPath></defs><g transform="matrix(1, 0, 0, 1, 30, 24)"><g clip-path="url(#d1fe229397)"><g fill="#acb4bf" fill-opacity="1"><g transform="translate(8.919263, 351.131912)"><g><path d="M 42.859375 -42.859375 L 42.859375 -85.703125 L 0 -85.703125 L 0 -128.5625 L 85.703125 -128.5625 L 85.703125 -85.703125 L 214.265625 -85.703125 L 214.265625 -171.40625 L 42.859375 -171.40625 L 42.859375 -214.265625 L 0 -214.265625 L 0 -299.96875 L 42.859375 -299.96875 L 42.859375 -342.8125 L 257.109375 -342.8125 L 257.109375 -299.96875 L 299.96875 -299.96875 L 299.96875 -257.109375 L 214.265625 -257.109375 L 214.265625 -299.96875 L 85.703125 -299.96875 L 85.703125 -214.265625 L 257.109375 -214.265625 L 257.109375 -171.40625 L 299.96875 -171.40625 L 299.96875 -85.703125 L 257.109375 -85.703125 L 257.109375 -42.859375 Z M 42.859375 -42.859375 "/></g></g></g><g fill="#ffffff" fill-opacity="1"><g transform="translate(8.919263, 351.131912)"><g><path d="M 38.566406 -42.851562 L 38.566406 -85.703125 L 42.851562 -85.703125 L 42.851562 -81.417969 L -4.285156 -81.417969 L -4.285156 -132.84375 L 89.992188 -132.84375 L 89.992188 -85.703125 L 85.703125 -85.703125 L 85.703125 -89.992188 L 214.261719 -89.992188 L 214.261719 -85.703125 L 209.976562 -85.703125 L 209.976562 -171.410156 L 214.261719 -171.410156 L 214.261719 -167.125 L 38.566406 -167.125 L 38.566406 -214.261719 L 42.851562 -214.261719 L 42.851562 -209.976562 L -4.285156 -209.976562 L -4.285156 -304.253906 L 42.851562 -304.253906 L 42.851562 -299.96875 L 38.566406 -299.96875 L 38.566406 -347.105469 L 261.402344 -347.105469 L 261.402344 -299.96875 L 257.113281 -299.96875 L 257.113281 -304.253906 L 304.253906 -304.253906 L 304.253906 -252.828125 L 209.976562 -252.828125 L 209.976562 -299.96875 L 214.261719 -299.96875 L 214.261719 -295.683594 L 85.703125 -295.683594 L 85.703125 -299.96875 L 89.992188 -299.96875 L 89.992188 -214.261719 L 85.703125 -214.261719 L 85.703125 -218.546875 L 261.402344 -218.546875 L 261.402344 -171.410156 L 257.113281 -171.410156 L 257.113281 -175.695312 L 304.253906 -175.695312 L 304.253906 -81.417969 L 257.113281 -81.417969 L 257.113281 -85.703125 L 261.402344 -85.703125 L 261.402344 -38.566406 L 38.566406 -38.566406 Z M 47.136719 -42.851562 L 42.851562 -42.851562 L 42.851562 -47.136719 L 257.113281 -47.136719 L 257.113281 -42.851562 L 252.828125 -42.851562 L 252.828125 -89.992188 L 299.96875 -89.992188 L 299.96875 -85.703125 L 295.683594 -85.703125 L 295.683594 -171.410156 L 299.96875 -171.410156 L 299.96875 -167.125 L 252.828125 -167.125 L 252.828125 -214.261719 L 257.113281 -214.261719 L 257.113281 -209.976562 L 81.417969 -209.976562 L 81.417969 -304.253906 L 218.546875 -304.253906 L 218.546875 -257.113281 L 214.261719 -257.113281 L 214.261719 -261.402344 L 299.96875 -261.402344 L 299.96875 -257.113281 L 295.683594 -257.113281 L 295.683594 -299.96875 L 299.96875 -299.96875 L 299.96875 -295.683594 L 252.828125 -295.683594 L 252.828125 -342.820312 L 257.113281 -342.820312 L 257.113281 -338.535156 L 42.851562 -338.535156 L 42.851562 -342.820312 L 47.136719 -342.820312 L 47.136719 -295.683594 L 0 -295.683594 L 0 -299.96875 L 4.285156 -299.96875 L 4.285156 -214.261719 L 0 -214.261719 L 0 -218.546875 L 47.136719 -218.546875 L 47.136719 -171.410156 L 42.851562 -171.410156 L 42.851562 -175.695312 L 218.546875 -175.695312 L 218.546875 -81.417969 L 81.417969 -81.417969 L 81.417969 -128.558594 L 85.703125 -128.558594 L 85.703125 -124.273438 L 0 -124.273438 L 0 -128.558594 L 4.285156 -128.558594 L 4.285156 -85.703125 L 0 -85.703125 L 0 -89.992188 L 47.136719 -89.992188 Z M 47.136719 -42.851562 "/></g></g></g></g></g></svg>